<svg width="270" height="270" viewBox="0 0 270 270" fill="none" xmlns="http://www.w3.org/2000/svg">
<g clip-path="url(#clip0_257_129)">
<path d="M175.37 98.455C144.408 66.65 150.495 40.24 115.98 40.0975C62.0552 39.8725 27.5902 95.6 29.3377 159.43C30.7627 211.47 78.7477 225.665 122.693 225.665C138.19 225.665 152.845 222.19 165.863 216.005C174.373 211.963 183.705 209.775 193.193 209.733C193.378 209.733 193.563 209.73 193.748 209.728C225.875 209.295 251.478 184.278 251.478 153.33C251.478 136.338 245.133 119.218 231.33 110.76C210.62 98.0725 184.623 107.96 175.37 98.455Z" fill="#F8E7E6"/>
<path d="M197.88 162.675L196.49 162.545C196.715 160.15 196.845 157.725 196.875 155.335L198.27 155.352C198.24 157.78 198.108 160.243 197.88 162.675ZM198.063 148.022L196.67 148.117C196.658 147.932 196.645 147.747 196.63 147.562C196.463 145.357 196.21 143.13 195.875 140.942L197.255 140.732C197.593 142.952 197.853 145.215 198.02 147.457C198.038 147.645 198.05 147.835 198.063 148.022ZM194.495 133.86C193.94 131.527 193.28 129.192 192.535 126.915L193.863 126.48C194.62 128.792 195.288 131.167 195.853 133.535L194.495 133.86ZM190.015 120.155C189.088 117.947 188.055 115.75 186.948 113.622L188.185 112.977C189.31 115.137 190.358 117.372 191.303 119.615L190.015 120.155ZM183.355 107.36C182.078 105.33 180.703 103.327 179.268 101.41L180.385 100.572C181.843 102.52 183.24 104.552 184.538 106.615L183.355 107.36ZM174.71 95.8125C173.12 94.015 171.44 92.2625 169.713 90.6025L170.68 89.595C172.435 91.28 174.143 93.06 175.755 94.8875L174.71 95.8125ZM164.308 85.815C162.448 84.3 160.505 82.8425 158.53 81.485L159.32 80.335C161.325 81.7125 163.3 83.1925 165.188 84.7325L164.308 85.815ZM152.418 77.645C150.338 76.455 148.183 75.335 146.01 74.32L146.603 73.055C148.808 74.0875 150.998 75.225 153.113 76.435L152.418 77.645ZM139.353 71.5325C137.108 70.7 134.798 69.95 132.49 69.3025L132.868 67.9575C135.213 68.615 137.56 69.3775 139.84 70.2225L139.353 71.5325ZM125.465 67.6425C123.118 67.1875 120.718 66.8225 118.33 66.5575L118.485 65.17C120.91 65.44 123.348 65.81 125.733 66.2725L125.465 67.6425Z" fill="#E8E8E8"/>
<path d="M167.771 237.237H180.118C198.252 237.237 212.955 222.534 212.955 204.4C212.955 186.265 198.252 171.562 180.118 171.562C175.738 171.562 171.556 172.423 167.737 173.977C167.345 156.186 152.802 141.885 134.914 141.885C117.027 141.885 102.483 156.191 102.091 173.977C98.2727 172.423 94.0911 171.562 89.7112 171.562C71.5767 171.562 56.8735 186.265 56.8735 204.4C56.8735 222.534 71.5767 237.237 89.7112 237.237H102.057" fill="#DDDDDD"/>
<path d="M127.04 222.897V200.049H117.96L132.378 185.636L146.791 200.049H137.716V222.873" fill="white"/>
<path d="M169.855 76.52C169.26 76.37 168.652 76.7325 168.502 77.3275L162.87 99.635C162.72 100.23 163.082 100.838 163.677 100.988L178.455 104.718C179.05 104.868 179.657 104.505 179.807 103.91L185.217 82.48L183.8 80.04L169.855 76.52Z" fill="#E6E6E6"/>
<path d="M185.238 82.4825L183.793 80.0625L183.305 81.995L185.238 82.4825Z" fill="#CCCCCC"/>
<path d="M175.095 77.4925C174.508 77.2 173.793 77.4425 173.503 78.03L162.578 100.053C162.285 100.64 162.528 101.355 163.115 101.645L177.705 108.883C178.293 109.175 179.008 108.933 179.298 108.345L189.792 87.1875L188.863 84.32L175.095 77.4925Z" fill="#F2F2F2"/>
<path d="M189.815 87.1975L188.853 84.3425L187.905 86.2525L189.815 87.1975Z" fill="#CCCCCC"/>
<path d="M179.64 88.815L181.66 84.6875L179.905 83.8275L177.883 87.955L174.888 90.325L179.605 92.6325L179.64 88.815Z" fill="#D1DBD8"/>
<path d="M169.893 90.5614L169.655 91.0486L182.067 97.1249L182.306 96.6377L169.893 90.5614Z" fill="#D1DBD8"/>
<path d="M169.124 92.1379L168.886 92.6251L181.298 98.7014L181.537 98.2142L169.124 92.1379Z" fill="#D1DBD8"/>
<path d="M168.353 93.7082L168.114 94.1954L180.527 100.272L180.765 99.7845L168.353 93.7082Z" fill="#D1DBD8"/>
<path d="M167.584 95.2818L167.346 95.769L179.758 101.845L179.997 101.358L167.584 95.2818Z" fill="#D1DBD8"/>
<path d="M166.795 96.8433L166.557 97.3306L178.969 103.407L179.208 102.92L166.795 96.8433Z" fill="#D1DBD8"/>
<path d="M166.026 98.4169L165.787 98.9042L178.2 104.98L178.438 104.493L166.026 98.4169Z" fill="#D1DBD8"/>
<path d="M135.17 87.3576C135.137 87.6226 135.325 87.8626 135.59 87.8951L154.502 90.2301C154.995 90.2901 154.937 89.9301 154.98 89.5826C155.022 89.2351 156.432 77.8251 156.432 77.8251C156.432 77.8251 157.795 76.7626 158.17 76.4701C158.545 76.1776 158.535 75.8051 158.807 73.5976C159.08 71.3926 159.975 64.1526 160.035 63.6501C160.097 63.1476 159.777 63.1851 159.235 63.1201C158.692 63.0526 154.707 62.5626 154.707 62.5626L138.48 60.5601L135.17 87.3576Z" fill="#6C6354"/>
<path d="M135.273 87.565L138.663 60.11C138.67 60.05 138.725 60.0075 138.785 60.015L157.32 62.3025C157.38 62.31 157.423 62.365 157.415 62.425L154.025 89.8775C154.018 89.9375 153.963 89.98 153.903 89.9725L135.368 87.685C135.308 87.68 135.265 87.6225 135.273 87.565Z" fill="#B3B3B3"/>
<path d="M135.287 87.4351L138.677 59.9651C138.685 59.9051 138.74 59.8626 138.8 59.8701L157.16 62.1376C157.22 62.1451 157.262 62.2001 157.255 62.2601L153.865 89.7251C153.857 89.7851 153.802 89.8276 153.742 89.8201L135.382 87.5526C135.322 87.5476 135.28 87.4926 135.287 87.4351Z" fill="#CCCCCC"/>
<path d="M135.305 87.2975L138.687 59.89C138.695 59.82 138.76 59.77 138.83 59.7775L156.962 62.015C157.032 62.0225 157.082 62.0875 157.075 62.1575L153.692 89.565C153.685 89.635 153.62 89.685 153.55 89.6775L135.417 87.44C135.347 87.4325 135.297 87.37 135.305 87.2975Z" fill="white"/>
<path d="M156.375 60.14L153.17 86.1075C152.985 87.6175 152.975 87.6775 151.435 87.4875C147.588 87.0125 135.27 86.57 135.165 87.41C135.165 87.41 138.03 64.205 138.503 60.375C138.89 57.2325 150.65 57.85 155.023 58.4C155.875 58.5075 156.48 59.285 156.375 60.14Z" fill="#3B3936"/>
<path d="M158.897 64.1026L157.49 75.5012L157.741 75.5321L159.147 64.1336L158.897 64.1026Z" fill="#E6E6E6"/>
<path d="M158.047 63.9968L156.64 75.3953L156.891 75.4262L158.298 64.0277L158.047 63.9968Z" fill="#E6E6E6"/>
<path d="M199.467 131.258L180.615 134.278C179.72 134.42 178.875 133.813 178.732 132.915L176.72 120.345C176.577 119.45 177.185 118.605 178.082 118.463L196.935 115.443C197.83 115.3 198.675 115.908 198.817 116.805L200.83 129.375C200.975 130.27 200.362 131.113 199.467 131.258Z" fill="#C2ADA1"/>
<path d="M193.47 121.65C194.265 121.65 194.91 121.005 194.91 120.21C194.91 119.415 194.265 118.77 193.47 118.77C192.674 118.77 192.03 119.415 192.03 120.21C192.03 121.005 192.674 121.65 193.47 121.65Z" fill="#F2F2F2"/>
<path d="M181.18 131.43L198.042 128.73L193.932 122.998L191.852 126.57L185.737 119.99L181.18 131.43Z" fill="#F2F2F2"/>
<path d="M120.432 67.8225L111.152 69.78C109.75 70.0775 108.372 69.18 108.075 67.775L106.117 58.495C105.82 57.0925 106.717 55.715 108.122 55.4175L117.402 53.46C118.805 53.1625 120.183 54.06 120.48 55.465L122.437 64.745C122.735 66.15 121.837 67.5275 120.432 67.8225Z" fill="#C2ADA1"/>
<path d="M110.445 57.4675C110.19 57.52 110.025 57.7725 110.08 58.0275L110.11 58.165L110.42 59.6375L111.325 63.9275C110.435 64.145 109.81 64.705 109.918 65.2075C110.028 65.7275 110.408 66.0875 111.348 65.89C112.288 65.6925 112.963 65.11 112.85 64.5875C112.848 64.58 112.845 64.5725 112.843 64.565H112.845L111.858 59.885C111.828 59.75 111.915 59.615 112.053 59.5875L116.485 58.6525C116.62 58.6225 116.755 58.71 116.783 58.8475L117.973 64.4925C117.083 64.71 116.458 65.27 116.565 65.7725C116.675 66.2925 117.098 66.645 118.038 66.4475C118.978 66.25 119.653 65.6675 119.54 65.145C119.538 65.14 119.538 65.1375 119.538 65.1325H119.54L118.043 58.0275L117.733 56.555L117.703 56.4175C117.648 56.1625 117.398 55.9975 117.143 56.0525L110.445 57.4675Z" fill="#F2F2F2"/>
<path d="M180.35 140.349L177.289 156.102L204.616 161.411L207.676 145.658L180.35 140.349Z" fill="#6C6354"/>
<path d="M192.93 148.62L204.635 161.372L177.302 156.063L192.93 148.62Z" fill="#3B3936"/>
<path d="M180.362 140.31L192.12 152.793L207.692 145.618L180.362 140.31Z" fill="#EBD5B1"/>
<path d="M88.8124 135.283H31.1274C30.5049 135.283 30.0024 134.78 30.0024 134.158C30.0024 133.535 30.5049 133.033 31.1274 133.033H88.8149C89.4374 133.033 89.9399 133.535 89.9399 134.158C89.9399 134.78 89.4349 135.283 88.8124 135.283Z" fill="#C2ADA1"/>
<path d="M105.147 135.283H98.5474C97.9249 135.283 97.4224 134.78 97.4224 134.158C97.4224 133.535 97.9249 133.033 98.5474 133.033H105.147C105.77 133.033 106.272 133.535 106.272 134.158C106.272 134.78 105.767 135.283 105.147 135.283Z" fill="#C2ADA1"/>
<path d="M88.8124 148.435H82.2124C81.5899 148.435 81.0874 147.932 81.0874 147.31C81.0874 146.687 81.5899 146.185 82.2124 146.185H88.8124C89.4349 146.185 89.9374 146.687 89.9374 147.31C89.9374 147.932 89.4349 148.435 88.8124 148.435Z" fill="#C2ADA1"/>
<path d="M76.1152 148.435H17.3577C16.7352 148.435 16.2327 147.932 16.2327 147.31C16.2327 146.687 16.7352 146.185 17.3577 146.185H76.1127C76.7352 146.185 77.2377 146.687 77.2377 147.31C77.2377 147.932 76.7352 148.435 76.1152 148.435Z" fill="#C2ADA1"/>
</g>
<defs>
<clipPath id="clip0_257_129">
<rect width="270" height="270" fill="white"/>
</clipPath>
</defs>
</svg>
